<?xml version="1.0" encoding="UTF-8" ?>
<svg version="1.1" width="128" height="32" xmlns="http://www.w3.org/2000/svg" shape-rendering="crispEdges">
<rect x="13" y="1" width="6" height="6" fill="#625F63" />
<rect x="35" y="1" width="2" height="30" fill="#AC3232" />
<rect x="81" y="1" width="2" height="24" fill="#625F63" />
<rect x="99" y="1" width="2" height="6" fill="#AC3232" />
<rect x="123" y="1" width="2" height="6" fill="#AC3232" />
<rect x="37" y="2" width="3" height="28" fill="#AC3232" />
<rect x="83" y="2" width="1" height="3" fill="#625F63" />
<rect x="98" y="2" width="1" height="4" fill="#AC3232" />
<rect x="101" y="2" width="1" height="7" fill="#AC3232" />
<rect x="122" y="2" width="1" height="7" fill="#AC3232" />
<rect x="125" y="2" width="1" height="4" fill="#AC3232" />
<rect x="6" y="3" width="4" height="7" fill="#625F63" />
<rect x="12" y="3" width="1" height="5" fill="#625F63" />
<rect x="19" y="3" width="1" height="5" fill="#625F63" />
<rect x="22" y="3" width="4" height="7" fill="#625F63" />
<rect x="40" y="3" width="1" height="26" fill="#AC3232" />
<rect x="84" y="3" width="1" height="3" fill="#625F63" />
<rect x="97" y="3" width="1" height="2" fill="#AC3232" />
<rect x="102" y="3" width="1" height="7" fill="#AC3232" />
<rect x="121" y="3" width="1" height="7" fill="#AC3232" />
<rect x="126" y="3" width="1" height="2" fill="#AC3232" />
<rect x="5" y="4" width="1" height="24" fill="#625F63" />
<rect x="10" y="4" width="1" height="5" fill="#625F63" />
<rect x="21" y="4" width="1" height="5" fill="#625F63" />
<rect x="26" y="4" width="1" height="24" fill="#625F63" />
<rect x="41" y="4" width="2" height="24" fill="#AC3232" />
<rect x="85" y="4" width="1" height="3" fill="#625F63" />
<rect x="103" y="4" width="1" height="7" fill="#AC3232" />
<rect x="120" y="4" width="1" height="7" fill="#AC3232" />
<rect x="4" y="5" width="1" height="6" fill="#625F63" />
<rect x="11" y="5" width="1" height="4" fill="#625F63" />
<rect x="20" y="5" width="1" height="4" fill="#625F63" />
<rect x="27" y="5" width="1" height="6" fill="#625F63" />
<rect x="43" y="5" width="2" height="22" fill="#AC3232" />
<rect x="86" y="5" width="1" height="3" fill="#625F63" />
<rect x="104" y="5" width="1" height="7" fill="#AC3232" />
<rect x="119" y="5" width="1" height="7" fill="#AC3232" />
<rect x="3" y="6" width="1" height="4" fill="#625F63" />
<rect x="28" y="6" width="1" height="4" fill="#625F63" />
<rect x="45" y="6" width="2" height="20" fill="#AC3232" />
<rect x="87" y="6" width="1" height="4" fill="#625F63" />
<rect x="105" y="6" width="1" height="7" fill="#AC3232" />
<rect x="118" y="6" width="1" height="7" fill="#AC3232" />
<rect x="13" y="7" width="1" height="1" fill="#625F63" />
<rect x="18" y="7" width="1" height="1" fill="#625F63" />
<rect x="47" y="7" width="2" height="18" fill="#AC3232" />
<rect x="88" y="7" width="1" height="5" fill="#625F63" />
<rect x="100" y="7" width="1" height="1" fill="#AC3232" />
<rect x="106" y="7" width="1" height="7" fill="#AC3232" />
<rect x="117" y="7" width="1" height="7" fill="#AC3232" />
<rect x="123" y="7" width="1" height="1" fill="#AC3232" />
<rect x="49" y="8" width="2" height="15" fill="#AC3232" />
<rect x="107" y="8" width="1" height="7" fill="#AC3232" />
<rect x="116" y="8" width="1" height="7" fill="#AC3232" />
<rect x="89" y="9" width="1" height="7" fill="#625F63" />
<rect x="108" y="9" width="1" height="14" fill="#AC3232" />
<rect x="115" y="9" width="1" height="14" fill="#AC3232" />
<rect x="6" y="10" width="3" height="2" fill="#625F63" />
<rect x="23" y="10" width="3" height="2" fill="#625F63" />
<rect x="51" y="10" width="2" height="12" fill="#AC3232" />
<rect x="109" y="10" width="1" height="12" fill="#AC3232" />
<rect x="114" y="10" width="1" height="12" fill="#AC3232" />
<rect x="53" y="11" width="1" height="10" fill="#AC3232" />
<rect x="90" y="11" width="1" height="4" fill="#625F63" />
<rect x="110" y="11" width="1" height="10" fill="#AC3232" />
<rect x="113" y="11" width="1" height="10" fill="#AC3232" />
<rect x="3" y="12" width="2" height="8" fill="#625F63" />
<rect x="6" y="12" width="2" height="2" fill="#625F63" />
<rect x="24" y="12" width="2" height="2" fill="#625F63" />
<rect x="27" y="12" width="2" height="8" fill="#625F63" />
<rect x="54" y="12" width="2" height="8" fill="#AC3232" />
<rect x="111" y="12" width="2" height="8" fill="#AC3232" />
<rect x="1" y="13" width="2" height="6" fill="#625F63" />
<rect x="29" y="13" width="2" height="6" fill="#625F63" />
<rect x="56" y="13" width="3" height="6" fill="#AC3232" />
<rect x="6" y="14" width="1" height="15" fill="#625F63" />
<rect x="25" y="14" width="1" height="15" fill="#625F63" />
<rect x="59" y="14" width="1" height="4" fill="#AC3232" />
<rect x="88" y="14" width="1" height="3" fill="#625F63" />
<rect x="60" y="15" width="1" height="2" fill="#AC3232" />
<rect x="87" y="15" width="1" height="3" fill="#625F63" />
<rect x="86" y="16" width="1" height="2" fill="#625F63" />
<rect x="73" y="17" width="4" height="14" fill="#625F63" />
<rect x="107" y="17" width="1" height="7" fill="#AC3232" />
<rect x="116" y="17" width="1" height="7" fill="#AC3232" />
<rect x="7" y="18" width="1" height="11" fill="#625F63" />
<rect x="24" y="18" width="1" height="11" fill="#625F63" />
<rect x="71" y="18" width="2" height="12" fill="#625F63" />
<rect x="77" y="18" width="2" height="12" fill="#625F63" />
<rect x="106" y="18" width="1" height="7" fill="#AC3232" />
<rect x="117" y="18" width="1" height="7" fill="#AC3232" />
<rect x="70" y="19" width="1" height="10" fill="#625F63" />
<rect x="79" y="19" width="1" height="10" fill="#625F63" />
<rect x="105" y="19" width="1" height="7" fill="#AC3232" />
<rect x="118" y="19" width="1" height="7" fill="#AC3232" />
<rect x="8" y="20" width="1" height="9" fill="#625F63" />
<rect x="23" y="20" width="1" height="9" fill="#625F63" />
<rect x="69" y="20" width="1" height="8" fill="#625F63" />
<rect x="80" y="20" width="1" height="8" fill="#625F63" />
<rect x="104" y="20" width="1" height="7" fill="#AC3232" />
<rect x="119" y="20" width="1" height="7" fill="#AC3232" />
<rect x="4" y="21" width="1" height="6" fill="#625F63" />
<rect x="27" y="21" width="1" height="6" fill="#625F63" />
<rect x="103" y="21" width="1" height="7" fill="#AC3232" />
<rect x="120" y="21" width="1" height="7" fill="#AC3232" />
<rect x="3" y="22" width="1" height="4" fill="#625F63" />
<rect x="9" y="22" width="1" height="7" fill="#625F63" />
<rect x="22" y="22" width="1" height="7" fill="#625F63" />
<rect x="28" y="22" width="1" height="4" fill="#625F63" />
<rect x="68" y="22" width="1" height="4" fill="#625F63" />
<rect x="102" y="22" width="1" height="7" fill="#AC3232" />
<rect x="121" y="22" width="1" height="7" fill="#AC3232" />
<rect x="10" y="23" width="2" height="4" fill="#625F63" />
<rect x="20" y="23" width="2" height="4" fill="#625F63" />
<rect x="101" y="23" width="1" height="7" fill="#AC3232" />
<rect x="122" y="23" width="1" height="7" fill="#AC3232" />
<rect x="12" y="24" width="2" height="5" fill="#625F63" />
<rect x="18" y="24" width="2" height="5" fill="#625F63" />
<rect x="100" y="24" width="1" height="7" fill="#AC3232" />
<rect x="123" y="24" width="1" height="7" fill="#AC3232" />
<rect x="14" y="25" width="4" height="6" fill="#625F63" />
<rect x="81" y="25" width="1" height="2" fill="#625F63" />
<rect x="99" y="25" width="1" height="6" fill="#AC3232" />
<rect x="124" y="25" width="1" height="6" fill="#AC3232" />
<rect x="98" y="26" width="1" height="4" fill="#AC3232" />
<rect x="125" y="26" width="1" height="4" fill="#AC3232" />
<rect x="10" y="27" width="1" height="1" fill="#625F63" />
<rect x="21" y="27" width="1" height="1" fill="#625F63" />
<rect x="97" y="27" width="1" height="2" fill="#AC3232" />
<rect x="126" y="27" width="1" height="2" fill="#AC3232" />
<rect x="13" y="29" width="1" height="2" fill="#625F63" />
<rect x="18" y="29" width="1" height="2" fill="#625F63" />
</svg>